<svg width="180" height="180" viewBox="0 0 180 180" fill="none" xmlns="http://www.w3.org/2000/svg">
  <!-- Background -->
  <rect width="180" height="180" rx="36" fill="#000000"/>
  
  <!-- QR Code Pattern - Scaled up for 180x180 -->
  <!-- Corner squares (QR code positioning markers) -->
  <!-- Top-left -->
  <rect x="20" y="20" width="40" height="40" fill="#ffffff"/>
  <rect x="25" y="25" width="30" height="30" fill="#000000"/>
  <rect x="30" y="30" width="20" height="20" fill="#ffffff"/>
  <rect x="35" y="35" width="10" height="10" fill="#000000"/>
  
  <!-- Top-right -->
  <rect x="120" y="20" width="40" height="40" fill="#ffffff"/>
  <rect x="125" y="25" width="30" height="30" fill="#000000"/>
  <rect x="130" y="30" width="20" height="20" fill="#ffffff"/>
  <rect x="135" y="35" width="10" height="10" fill="#000000"/>
  
  <!-- Bottom-left -->
  <rect x="20" y="120" width="40" height="40" fill="#ffffff"/>
  <rect x="25" y="125" width="30" height="30" fill="#000000"/>
  <rect x="30" y="130" width="20" height="20" fill="#ffffff"/>
  <rect x="35" y="135" width="10" height="10" fill="#000000"/>
  
  <!-- Center pattern -->
  <rect x="75" y="75" width="30" height="30" fill="#ffffff"/>
  <rect x="80" y="80" width="20" height="20" fill="#000000"/>
  <rect x="85" y="85" width="10" height="10" fill="#ffffff"/>
  
  <!-- Data pattern -->
  <rect x="70" y="20" width="10" height="10" fill="#ffffff"/>
  <rect x="90" y="20" width="10" height="10" fill="#ffffff"/>
  <rect x="70" y="40" width="10" height="10" fill="#ffffff"/>
  <rect x="110" y="40" width="10" height="10" fill="#ffffff"/>
  
  <rect x="20" y="70" width="10" height="10" fill="#ffffff"/>
  <rect x="40" y="70" width="10" height="10" fill="#ffffff"/>
  <rect x="70" y="70" width="10" height="10" fill="#ffffff"/>
  <rect x="110" y="70" width="10" height="10" fill="#ffffff"/>
  <rect x="130" y="70" width="10" height="10" fill="#ffffff"/>
  <rect x="150" y="70" width="10" height="10" fill="#ffffff"/>
  
  <rect x="70" y="110" width="10" height="10" fill="#ffffff"/>
  <rect x="110" y="110" width="10" height="10" fill="#ffffff"/>
  <rect x="130" y="110" width="10" height="10" fill="#ffffff"/>
  <rect x="150" y="110" width="10" height="10" fill="#ffffff"/>
  
  <rect x="70" y="130" width="10" height="10" fill="#ffffff"/>
  <rect x="90" y="130" width="10" height="10" fill="#ffffff"/>
  <rect x="130" y="130" width="10" height="10" fill="#ffffff"/>
  <rect x="150" y="130" width="10" height="10" fill="#ffffff"/>
  
  <rect x="70" y="150" width="10" height="10" fill="#ffffff"/>
  <rect x="90" y="150" width="10" height="10" fill="#ffffff"/>
  <rect x="110" y="150" width="10" height="10" fill="#ffffff"/>
  <rect x="150" y="150" width="10" height="10" fill="#ffffff"/>
</svg>
