<svg width="32" height="32" viewBox="0 0 32 32" fill="none" xmlns="http://www.w3.org/2000/svg">
  <!-- QR Code Grid Pattern -->
  <rect width="32" height="32" fill="#000000"/>
  
  <!-- Corner squares (QR code positioning markers) -->
  <!-- Top-left -->
  <rect x="2" y="2" width="8" height="8" fill="#ffffff"/>
  <rect x="3" y="3" width="6" height="6" fill="#000000"/>
  <rect x="4" y="4" width="4" height="4" fill="#ffffff"/>
  <rect x="5" y="5" width="2" height="2" fill="#000000"/>
  
  <!-- Top-right -->
  <rect x="22" y="2" width="8" height="8" fill="#ffffff"/>
  <rect x="23" y="3" width="6" height="6" fill="#000000"/>
  <rect x="24" y="4" width="4" height="4" fill="#ffffff"/>
  <rect x="25" y="5" width="2" height="2" fill="#000000"/>
  
  <!-- Bottom-left -->
  <rect x="2" y="22" width="8" height="8" fill="#ffffff"/>
  <rect x="3" y="23" width="6" height="6" fill="#000000"/>
  <rect x="4" y="24" width="4" height="4" fill="#ffffff"/>
  <rect x="5" y="25" width="2" height="2" fill="#000000"/>
  
  <!-- Data pattern (simplified QR code data) -->
  <rect x="12" y="2" width="2" height="2" fill="#ffffff"/>
  <rect x="16" y="2" width="2" height="2" fill="#ffffff"/>
  <rect x="12" y="6" width="2" height="2" fill="#ffffff"/>
  <rect x="18" y="6" width="2" height="2" fill="#ffffff"/>
  
  <rect x="2" y="12" width="2" height="2" fill="#ffffff"/>
  <rect x="6" y="12" width="2" height="2" fill="#ffffff"/>
  <rect x="12" y="12" width="2" height="2" fill="#ffffff"/>
  <rect x="16" y="12" width="2" height="2" fill="#ffffff"/>
  <rect x="20" y="12" width="2" height="2" fill="#ffffff"/>
  <rect x="24" y="12" width="2" height="2" fill="#ffffff"/>
  <rect x="28" y="12" width="2" height="2" fill="#ffffff"/>
  
  <rect x="12" y="16" width="2" height="2" fill="#ffffff"/>
  <rect x="18" y="16" width="2" height="2" fill="#ffffff"/>
  <rect x="22" y="16" width="2" height="2" fill="#ffffff"/>
  <rect x="28" y="16" width="2" height="2" fill="#ffffff"/>
  
  <rect x="12" y="20" width="2" height="2" fill="#ffffff"/>
  <rect x="16" y="20" width="2" height="2" fill="#ffffff"/>
  <rect x="22" y="20" width="2" height="2" fill="#ffffff"/>
  <rect x="26" y="20" width="2" height="2" fill="#ffffff"/>
  
  <rect x="12" y="24" width="2" height="2" fill="#ffffff"/>
  <rect x="18" y="24" width="2" height="2" fill="#ffffff"/>
  <rect x="22" y="24" width="2" height="2" fill="#ffffff"/>
  <rect x="28" y="24" width="2" height="2" fill="#ffffff"/>
  
  <rect x="12" y="28" width="2" height="2" fill="#ffffff"/>
  <rect x="16" y="28" width="2" height="2" fill="#ffffff"/>
  <rect x="20" y="28" width="2" height="2" fill="#ffffff"/>
  <rect x="26" y="28" width="2" height="2" fill="#ffffff"/>
</svg>
